<mxfile host="app.diagrams.net" modified="2022-11-24T08:27:26.181Z" agent="5.0 (Windows NT 10.0; Win64; x64) AppleWebKit/537.36 (KHTML, like Gecko) Chrome/107.0.0.0 Safari/537.36" version="20.6.0" etag="NUSFwqkYWuMcZf9ICMiM" type="github">
  <diagram id="VoQyQDLPAVoqgFM4kWj8" name="第 1 页">
    <mxGraphModel dx="870" dy="538" grid="1" gridSize="10" guides="1" tooltips="1" connect="1" arrows="1" fold="1" page="1" pageScale="1" pageWidth="827" pageHeight="1169" math="0" shadow="0">
      <root>
        <mxCell id="0" />
        <mxCell id="1" parent="0" />
        <mxCell id="JzUfM-_BHqUnvEUyshB7-19" style="edgeStyle=orthogonalEdgeStyle;rounded=0;orthogonalLoop=1;jettySize=auto;html=1;exitX=0;exitY=0.5;exitDx=0;exitDy=0;entryX=1;entryY=0.5;entryDx=0;entryDy=0;" edge="1" parent="1" source="JzUfM-_BHqUnvEUyshB7-1" target="JzUfM-_BHqUnvEUyshB7-13">
          <mxGeometry relative="1" as="geometry" />
        </mxCell>
        <mxCell id="JzUfM-_BHqUnvEUyshB7-1" value="0" style="rounded=0;whiteSpace=wrap;html=1;" vertex="1" parent="1">
          <mxGeometry x="280" y="160" width="20" height="20" as="geometry" />
        </mxCell>
        <mxCell id="JzUfM-_BHqUnvEUyshB7-20" style="edgeStyle=orthogonalEdgeStyle;rounded=0;orthogonalLoop=1;jettySize=auto;html=1;exitX=0;exitY=0.5;exitDx=0;exitDy=0;entryX=1;entryY=0.5;entryDx=0;entryDy=0;" edge="1" parent="1" source="JzUfM-_BHqUnvEUyshB7-2" target="JzUfM-_BHqUnvEUyshB7-15">
          <mxGeometry relative="1" as="geometry">
            <mxPoint x="190" y="260" as="targetPoint" />
          </mxGeometry>
        </mxCell>
        <mxCell id="JzUfM-_BHqUnvEUyshB7-2" value="1" style="rounded=0;whiteSpace=wrap;html=1;" vertex="1" parent="1">
          <mxGeometry x="280" y="180" width="20" height="20" as="geometry" />
        </mxCell>
        <mxCell id="JzUfM-_BHqUnvEUyshB7-21" style="edgeStyle=orthogonalEdgeStyle;rounded=0;orthogonalLoop=1;jettySize=auto;html=1;exitX=0;exitY=0.5;exitDx=0;exitDy=0;entryX=1;entryY=0.5;entryDx=0;entryDy=0;" edge="1" parent="1" source="JzUfM-_BHqUnvEUyshB7-3" target="JzUfM-_BHqUnvEUyshB7-17">
          <mxGeometry relative="1" as="geometry">
            <mxPoint x="200" y="380" as="targetPoint" />
            <Array as="points">
              <mxPoint x="240" y="210" />
              <mxPoint x="240" y="365" />
            </Array>
          </mxGeometry>
        </mxCell>
        <mxCell id="JzUfM-_BHqUnvEUyshB7-3" value="2" style="rounded=0;whiteSpace=wrap;html=1;" vertex="1" parent="1">
          <mxGeometry x="280" y="200" width="20" height="20" as="geometry" />
        </mxCell>
        <mxCell id="JzUfM-_BHqUnvEUyshB7-22" style="edgeStyle=orthogonalEdgeStyle;rounded=0;orthogonalLoop=1;jettySize=auto;html=1;exitX=1;exitY=0.5;exitDx=0;exitDy=0;entryX=0;entryY=0.25;entryDx=0;entryDy=0;" edge="1" parent="1" source="JzUfM-_BHqUnvEUyshB7-4" target="JzUfM-_BHqUnvEUyshB7-12">
          <mxGeometry relative="1" as="geometry">
            <mxPoint x="410" y="230" as="targetPoint" />
          </mxGeometry>
        </mxCell>
        <mxCell id="JzUfM-_BHqUnvEUyshB7-4" value="3" style="rounded=0;whiteSpace=wrap;html=1;" vertex="1" parent="1">
          <mxGeometry x="280" y="220" width="20" height="20" as="geometry" />
        </mxCell>
        <mxCell id="JzUfM-_BHqUnvEUyshB7-5" value="描述符编号" style="text;html=1;strokeColor=none;fillColor=none;align=center;verticalAlign=middle;whiteSpace=wrap;rounded=0;" vertex="1" parent="1">
          <mxGeometry x="250" y="120" width="80" height="30" as="geometry" />
        </mxCell>
        <mxCell id="JzUfM-_BHqUnvEUyshB7-7" value="用户描述符" style="swimlane;whiteSpace=wrap;html=1;" vertex="1" parent="1">
          <mxGeometry x="360" y="80" width="130" height="90" as="geometry" />
        </mxCell>
        <mxCell id="JzUfM-_BHqUnvEUyshB7-12" value="路径 = /a/b/c&lt;br&gt;类型 = 文件&lt;br&gt;文件系统服务 = fat32_A&lt;br&gt;服务端 fd 编号 = 3" style="text;html=1;strokeColor=none;fillColor=none;align=left;verticalAlign=middle;whiteSpace=wrap;rounded=0;labelPosition=center;verticalLabelPosition=middle;" vertex="1" parent="JzUfM-_BHqUnvEUyshB7-7">
          <mxGeometry y="20" width="140" height="70" as="geometry" />
        </mxCell>
        <mxCell id="JzUfM-_BHqUnvEUyshB7-13" value="用户描述符" style="swimlane;whiteSpace=wrap;html=1;" vertex="1" parent="1">
          <mxGeometry x="30" y="80" width="130" height="90" as="geometry" />
        </mxCell>
        <mxCell id="JzUfM-_BHqUnvEUyshB7-14" value="路径 = null&lt;br&gt;类型 = 标准输入&lt;br&gt;文件系统服务 = null&lt;br&gt;服务端 fd 编号 = -1" style="text;html=1;strokeColor=none;fillColor=none;align=left;verticalAlign=middle;whiteSpace=wrap;rounded=0;labelPosition=center;verticalLabelPosition=middle;" vertex="1" parent="JzUfM-_BHqUnvEUyshB7-13">
          <mxGeometry y="20" width="110" height="70" as="geometry" />
        </mxCell>
        <mxCell id="JzUfM-_BHqUnvEUyshB7-15" value="用户描述符" style="swimlane;whiteSpace=wrap;html=1;" vertex="1" parent="1">
          <mxGeometry x="30" y="200" width="130" height="90" as="geometry" />
        </mxCell>
        <mxCell id="JzUfM-_BHqUnvEUyshB7-16" value="路径 = null&lt;br&gt;类型 = 标准输出&lt;br&gt;文件系统服务 = null&lt;br&gt;服务端 fd 编号 = -1" style="text;html=1;strokeColor=none;fillColor=none;align=left;verticalAlign=middle;whiteSpace=wrap;rounded=0;labelPosition=center;verticalLabelPosition=middle;" vertex="1" parent="JzUfM-_BHqUnvEUyshB7-15">
          <mxGeometry y="20" width="110" height="70" as="geometry" />
        </mxCell>
        <mxCell id="JzUfM-_BHqUnvEUyshB7-17" value="用户描述符" style="swimlane;whiteSpace=wrap;html=1;" vertex="1" parent="1">
          <mxGeometry x="30" y="320" width="130" height="90" as="geometry" />
        </mxCell>
        <mxCell id="JzUfM-_BHqUnvEUyshB7-18" value="路径 = null&lt;br&gt;类型 = 标准错误&lt;br&gt;文件系统服务 = null&lt;br&gt;服务端 fd 编号 = -1" style="text;html=1;strokeColor=none;fillColor=none;align=left;verticalAlign=middle;whiteSpace=wrap;rounded=0;labelPosition=center;verticalLabelPosition=middle;" vertex="1" parent="JzUfM-_BHqUnvEUyshB7-17">
          <mxGeometry y="20" width="110" height="70" as="geometry" />
        </mxCell>
        <mxCell id="JzUfM-_BHqUnvEUyshB7-24" style="edgeStyle=orthogonalEdgeStyle;rounded=0;orthogonalLoop=1;jettySize=auto;html=1;exitX=1;exitY=0.5;exitDx=0;exitDy=0;entryX=0.5;entryY=1;entryDx=0;entryDy=0;dashed=1;" edge="1" parent="1" source="JzUfM-_BHqUnvEUyshB7-23" target="JzUfM-_BHqUnvEUyshB7-12">
          <mxGeometry relative="1" as="geometry" />
        </mxCell>
        <mxCell id="JzUfM-_BHqUnvEUyshB7-23" value="4" style="rounded=0;whiteSpace=wrap;html=1;dashed=1;" vertex="1" parent="1">
          <mxGeometry x="280" y="240" width="20" height="20" as="geometry" />
        </mxCell>
      </root>
    </mxGraphModel>
  </diagram>
</mxfile>
